<?xml version="1.0" encoding="UTF-8" standalone="no"?>

<svg width="61.3mm" height="57.7mm" viewBox="0 0 61.290844 57.636177" version="1.1" id="svg5"
    xml:space="preserve" sodipodi:docname="dessin.svg" inkscape:version="1.2.1 (9c6d41e410, 2022-07-14)"
    xmlns:inkscape="http://www.inkscape.org/namespaces/inkscape"
    xmlns:sodipodi="http://sodipodi.sourceforge.net/DTD/sodipodi-0.dtd" xmlns:xlink="http://www.w3.org/1999/xlink"
    xmlns="http://www.w3.org/2000/svg" xmlns:svg="http://www.w3.org/2000/svg">

  <defs id="defs2">
    <linearGradient id="linearGradient6690"  gradientTransform="rotate(90)">
      <stop stop-color="#f5ad32" offset="5%" />
        <stop stop-color="#e83e75" offset="95%"/>
      </linearGradient>
  </defs>
    <g inkscape:label="Calque 1" inkscape:groupmode="layer" id="layer1" transform="translate(-101.21697,-99.030611)" />
    <g inkscape:groupmode="layer" id="layer2" inkscape:label="Calque 2" transform="translate(-101.21697,-99.030611)">
    <g id="g10379" transform="translate(-39.703125,-11.6875)">
      <path
          style="fill:url(#linearGradient6690);fill-opacity:1;fill-rule:nonzero;stroke:#000000;stroke-width:0;stroke-linejoin:round;stroke-dasharray:none"
          d="m 154.34375,120.05469 c 0,0 -13.01885,6.91025 -13.40625,13.92187 -0.43622,7.89509 7.42462,14.1502 12.71875,20.02344 5.16103,5.72558 12.26914,14.53198 18.13282,14.35156 5.58594,-0.17187 13.07169,-8.14392 21.39843,-20.19531 4.94578,-7.15809 9.02344,-16.75781 9.02344,-24.49219 -0.26526,-9.17657 -8.36044,-13.49292 -16.32813,-12.89062 -8.82292,0.85937 -14.98176,2.32031 -22.68749,5.15624 l -0.25782,23.03126 c -0.12894,11.51785 17.20437,11.86777 17.27344,-0.0859 l 0.0859,-14.86719 c 0.0358,-6.18784 8.59375,-8.59375 8.59375,-8.59375 l 0.0859,25.60938 c 0,0 -1.97656,14.78125 -16.32812,15.46875 -14.35157,0.6875 -18.39063,-14.60938 -18.39063,-14.60938 z"
          id="path3823" sodipodi:nodetypes="csasscccsssccscc" />
    </g>
  </g>
</svg>